<svg width="23" height="22" viewBox="0 0 23 22" fill="none" xmlns="http://www.w3.org/2000/svg">
<path d="M16.4016 5.31037C16.4016 7.90655 14.8675 9.11613 13.1269 9.70617V9.76518C15.3395 10.1487 17.2277 11.7713 17.2277 14.928C17.2277 18.9993 14.425 21.094 10.0587 21.094H0.5V-7.62939e-06H9.55714C13.8939 -7.62939e-06 16.4016 1.91763 16.4016 5.31037ZM4.01075 8.73261H9.43913C11.9468 8.73261 12.8909 7.72954 12.8909 5.8709C12.8909 4.01227 11.7403 2.9797 9.64564 2.9797H4.01075V8.73261ZM4.01075 11.3583V18.1143H9.79315C12.8024 18.1143 13.7169 16.6982 13.7169 14.7215C13.7169 12.5679 12.3893 11.3583 10.1767 11.3583H4.01075Z" fill="white"/>
<path d="M21.0724 21.33C19.9808 21.33 19.1548 20.5924 19.1548 19.4124C19.1548 18.2618 19.9808 17.4947 21.0724 17.4947C22.1345 17.4947 22.9605 18.2618 22.9605 19.4124C22.9605 20.5924 22.1345 21.33 21.0724 21.33Z" fill="white"/>
</svg>
