<?xml version="1.0" encoding="UTF-8" standalone="no" ?>
<!DOCTYPE svg PUBLIC "-//W3C//DTD SVG 1.1//EN" "http://www.w3.org/Graphics/SVG/1.1/DTD/svg11.dtd">
<svg xmlns="http://www.w3.org/2000/svg" xmlns:xlink="http://www.w3.org/1999/xlink" version="1.1" width="1080" height="1080" viewBox="0 0 1080 1080" xml:space="preserve">
<desc>Created with Fabric.js 5.2.4</desc>
<defs>
</defs>
<g transform="matrix(1 0 0 1 540 540)" id="7554f04b-0763-4aed-abdf-d8068d17a130"  >
<rect style="stroke: none; stroke-width: 1; stroke-dasharray: none; stroke-linecap: butt; stroke-dashoffset: 0; stroke-linejoin: miter; stroke-miterlimit: 4; fill: rgb(255,255,255); fill-rule: nonzero; opacity: 1; visibility: hidden;" vector-effect="non-scaling-stroke"  x="-540" y="-540" rx="0" ry="0" width="1080" height="1080" />
</g>
<g transform="matrix(1 0 0 1 540 540)" id="295cdb14-5a73-4bea-be1e-d856a83bcf61"  >
</g>
<g transform="matrix(17.42 0 0 17.42 540 540)"  >
<g style=""   >
		<g transform="matrix(1 0 0 1 0 0)"  >
<circle style="stroke: rgb(103,104,121); stroke-width: 1; stroke-dasharray: none; stroke-linecap: butt; stroke-dashoffset: 0; stroke-linejoin: miter; stroke-miterlimit: 4; fill: rgb(24,27,52); fill-rule: nonzero; opacity: 1;" vector-effect="non-scaling-stroke"  cx="0" cy="0" r="30.5" />
</g>
		<g transform="matrix(1 0 0 1 -0.5 0)"  >
<path style="stroke: none; stroke-width: 1; stroke-dasharray: none; stroke-linecap: butt; stroke-dashoffset: 0; stroke-linejoin: miter; stroke-miterlimit: 4; fill: rgb(255,255,255); fill-rule: nonzero; opacity: 1;" vector-effect="non-scaling-stroke"  transform=" translate(-30.5, -31)" d="M 18.2929 30.2929 C 17.9024 30.6834 17.9024 31.3166 18.2929 31.7071 L 24.6569 38.0711 C 25.0474 38.4616 25.6805 38.4616 26.0711 38.0711 C 26.4616 37.6805 26.4616 37.0474 26.0711 36.6569 L 20.4142 31 L 26.0711 25.3431 C 26.4616 24.9526 26.4616 24.3195 26.0711 23.9289 C 25.6805 23.5384 25.0474 23.5384 24.6569 23.9289 L 18.2929 30.2929 Z M 43 30 L 19 30 L 19 32 L 43 32 L 43 30 Z" stroke-linecap="round" />
</g>
</g>
</g>
</svg>