<svg width="20" height="20" viewBox="0 0 20 20" fill="none" xmlns="http://www.w3.org/2000/svg">
<path d="M12.3116 8.33313L18.5018 2.14331C18.7216 1.9235 18.7216 1.56779 18.5018 1.34805L17.3188 0.164578C17.2134 0.0592842 17.0704 0 16.9212 0C16.7719 0 16.6289 0.0592842 16.5236 0.164578L10.3333 6.35487L4.14312 0.164578C4.03775 0.0592842 3.89477 0 3.74549 0C3.59625 0 3.45323 0.0592842 3.3479 0.164578L2.16486 1.34805C1.94505 1.56779 1.94505 1.9235 2.16486 2.14331L8.35508 8.33317L2.16547 14.5223C1.94577 14.7421 1.94577 15.0978 2.16547 15.3175L3.34859 16.501C3.45388 16.6063 3.5969 16.6656 3.74618 16.6656C3.89546 16.6656 4.03844 16.6063 4.14384 16.501L10.3333 10.3114L16.5228 16.501C16.6282 16.6063 16.7712 16.6656 16.9204 16.6656C17.0697 16.6656 17.2127 16.6063 17.318 16.501L18.5011 15.3175C18.7208 15.0978 18.7208 14.7421 18.5011 14.5223L12.3116 8.33313Z" fill="black"/>
</svg>
