<?xml version="1.0" encoding="UTF-8" standalone="no" ?>
<!DOCTYPE svg PUBLIC "-//W3C//DTD SVG 1.1//EN" "http://www.w3.org/Graphics/SVG/1.1/DTD/svg11.dtd">
<svg xmlns="http://www.w3.org/2000/svg" xmlns:xlink="http://www.w3.org/1999/xlink" version="1.1" width="1080" height="1080" viewBox="0 0 1080 1080" xml:space="preserve">
<desc>Created with Fabric.js 5.2.4</desc>
<defs>
</defs>
<rect x="0" y="0" width="100%" height="100%" fill="transparent"></rect>
<g transform="matrix(1 0 0 1 540 540)" id="e8158de7-ecdf-47ef-aa13-2b12c9980619"  >
<rect style="stroke: none; stroke-width: 1; stroke-dasharray: none; stroke-linecap: butt; stroke-dashoffset: 0; stroke-linejoin: miter; stroke-miterlimit: 4; fill: rgb(255,255,255); fill-rule: nonzero; opacity: 1; visibility: hidden;" vector-effect="non-scaling-stroke"  x="-540" y="-540" rx="0" ry="0" width="1080" height="1080" />
</g>
<g transform="matrix(1 0 0 1 540 540)" id="fd278bdd-63ba-4db5-8ac1-78a1842762f5"  >
</g>
<g transform="matrix(54 0 0 54 540 540)"  >
<g style=""   >
		<g transform="matrix(1 0 0 1 -2.49 -2.5)"  >
<path style="stroke: rgb(103,104,121); stroke-width: 1.2; stroke-dasharray: none; stroke-linecap: round; stroke-dashoffset: 0; stroke-linejoin: round; stroke-miterlimit: 4; fill: none; fill-rule: nonzero; opacity: 1;" vector-effect="non-scaling-stroke"  transform=" translate(-7.51, -7.5)" d="M 1.88281 1.87549 L 13.1328 1.87549 C 13.1328 1.87549 14.3828 1.87549 14.3828 3.12549 L 14.3828 11.8755 C 14.3828 11.8755 14.3828 13.1255 13.1328 13.1255 L 1.88281 13.1255 C 1.88281 13.1255 0.632812 13.1255 0.632812 11.8755 L 0.632812 3.12549 C 0.632812 3.12549 0.632812 1.87549 1.88281 1.87549 Z" stroke-linecap="round" />
</g>
		<g transform="matrix(1 0 0 1 -2.49 -4.38)"  >
<path style="stroke: rgb(103,104,121); stroke-width: 1.2; stroke-dasharray: none; stroke-linecap: round; stroke-dashoffset: 0; stroke-linejoin: round; stroke-miterlimit: 4; fill: none; fill-rule: nonzero; opacity: 1;" vector-effect="non-scaling-stroke"  transform=" translate(-7.51, -5.62)" d="M 0.632812 5.61993 L 14.3828 5.61993" stroke-linecap="round" />
</g>
		<g transform="matrix(1 0 0 1 0.63 0.62)"  >
<path style="stroke: rgb(103,104,121); stroke-width: 1.2; stroke-dasharray: none; stroke-linecap: round; stroke-dashoffset: 0; stroke-linejoin: round; stroke-miterlimit: 4; fill: none; fill-rule: nonzero; opacity: 1;" vector-effect="non-scaling-stroke"  transform=" translate(-10.63, -10.62)" d="M 16.8823 5.61993 L 16.8823 14.3699 C 16.8823 14.7015 16.7507 15.0194 16.5162 15.2538 C 16.2818 15.4882 15.9638 15.6199 15.6323 15.6199 L 4.38232 15.6199" stroke-linecap="round" />
</g>
		<g transform="matrix(1 0 0 1 3.13 3.12)"  >
<path style="stroke: rgb(103,104,121); stroke-width: 1.2; stroke-dasharray: none; stroke-linecap: round; stroke-dashoffset: 0; stroke-linejoin: round; stroke-miterlimit: 4; fill: none; fill-rule: nonzero; opacity: 1;" vector-effect="non-scaling-stroke"  transform=" translate(-13.13, -13.12)" d="M 19.3826 8.11621 L 19.3826 16.8662 C 19.3826 17.1978 19.2509 17.5157 19.0165 17.7501 C 18.7821 17.9845 18.4641 18.1162 18.1326 18.1162 L 6.88257 18.1162" stroke-linecap="round" />
</g>
</g>
</g>
</svg>