<?xml version="1.0" encoding="UTF-8" standalone="no" ?>
<!DOCTYPE svg PUBLIC "-//W3C//DTD SVG 1.1//EN" "http://www.w3.org/Graphics/SVG/1.1/DTD/svg11.dtd">
<svg xmlns="http://www.w3.org/2000/svg" xmlns:xlink="http://www.w3.org/1999/xlink" version="1.1" width="1080" height="1080" viewBox="0 0 1080 1080" xml:space="preserve">
<desc>Created with Fabric.js 5.2.4</desc>
<defs>
</defs>
<g transform="matrix(1 0 0 1 540 540)" id="91e1d44b-97e0-454c-89a8-5adc9ef3633f"  >
<rect style="stroke: none; stroke-width: 1; stroke-dasharray: none; stroke-linecap: butt; stroke-dashoffset: 0; stroke-linejoin: miter; stroke-miterlimit: 4; fill: rgb(255,255,255); fill-rule: nonzero; opacity: 1; visibility: hidden;" vector-effect="non-scaling-stroke"  x="-540" y="-540" rx="0" ry="0" width="1080" height="1080" />
</g>
<g transform="matrix(1 0 0 1 540 540)" id="6b1e034e-7a72-4a54-9833-bfa72ee68176"  >
</g>
<g transform="matrix(NaN NaN NaN NaN 0 0)"  >
<path style="stroke: none; stroke-width: 1; stroke-dasharray: none; stroke-linecap: butt; stroke-dashoffset: 0; stroke-linejoin: miter; stroke-miterlimit: 4; fill: rgb(0,0,0); fill-rule: evenodd; opacity: 1;"  transform=" translate(-6.55, -6.55)" d="M 6.55491 13.1098 C 10.1751 13.1098 13.1098 10.1751 13.1098 6.55491 C 13.1098 2.93474 10.1751 0 6.55491 0 C 2.93474 0 0 2.93474 0 6.55491 C 0 10.1751 2.93474 13.1098 6.55491 13.1098 Z M 9.86117 5.0764 C 10.0949 4.76985 10.0358 4.33187 9.72927 4.09817 C 9.42271 3.86446 8.98474 3.92352 8.75103 4.23008 L 6.16635 7.62044 L 4.90602 6.10805 C 4.65924 5.81192 4.21912 5.7719 3.92299 6.01868 C 3.62685 6.26546 3.58684 6.70558 3.83362 7.00172 L 6.21491 9.85927 L 9.86117 5.0764 Z" stroke-linecap="round" />
</g>
<g transform="matrix(NaN NaN NaN NaN 0 0)"  >
<path style="stroke: none; stroke-width: 1; stroke-dasharray: none; stroke-linecap: butt; stroke-dashoffset: 0; stroke-linejoin: miter; stroke-miterlimit: 4; fill: rgb(0,0,0); fill-rule: evenodd; opacity: 1;"  transform=" translate(-6.55, -6.55)" d="M 6.55491 13.1098 C 10.1751 13.1098 13.1098 10.1751 13.1098 6.55491 C 13.1098 2.93474 10.1751 0 6.55491 0 C 2.93474 0 0 2.93474 0 6.55491 C 0 10.1751 2.93474 13.1098 6.55491 13.1098 Z M 9.86117 5.0764 C 10.0949 4.76985 10.0358 4.33187 9.72927 4.09817 C 9.42271 3.86446 8.98474 3.92352 8.75103 4.23008 L 6.16635 7.62044 L 4.90602 6.10805 C 4.65924 5.81192 4.21912 5.7719 3.92299 6.01868 C 3.62685 6.26546 3.58684 6.70558 3.83362 7.00172 L 6.21491 9.85927 L 9.86117 5.0764 Z" stroke-linecap="round" />
</g>
<g transform="matrix(77.14 0 0 77.14 540 540)"  >
<path style="stroke: none; stroke-width: 1; stroke-dasharray: none; stroke-linecap: butt; stroke-dashoffset: 0; stroke-linejoin: miter; stroke-miterlimit: 4; fill: rgb(0,0,0); fill-rule: evenodd; opacity: 1;"  transform=" translate(-6.55, -6.55)" d="M 6.55491 13.1098 C 10.1751 13.1098 13.1098 10.1751 13.1098 6.55491 C 13.1098 2.93474 10.1751 0 6.55491 0 C 2.93474 0 0 2.93474 0 6.55491 C 0 10.1751 2.93474 13.1098 6.55491 13.1098 Z M 9.86117 5.0764 C 10.0949 4.76985 10.0358 4.33187 9.72927 4.09817 C 9.42271 3.86446 8.98474 3.92352 8.75103 4.23008 L 6.16635 7.62044 L 4.90602 6.10805 C 4.65924 5.81192 4.21912 5.7719 3.92299 6.01868 C 3.62685 6.26546 3.58684 6.70558 3.83362 7.00172 L 6.21491 9.85927 L 9.86117 5.0764 Z" stroke-linecap="round" />
</g>
</svg>