<svg width="16" height="16" viewBox="0 0 16 16" fill="none" xmlns="http://www.w3.org/2000/svg">
<path d="M11.75 10C13.8288 10 14.6802 12.1479 15.0239 13.696C15.2095 14.532 14.5333 15.25 13.6769 15.25H12.75M10.75 6.25C12.2688 6.25 13.25 5.01878 13.25 3.5C13.25 1.98122 12.2688 0.75 10.75 0.75M1.78164 15.25H9.21826C9.78276 15.25 10.227 14.7817 10.1145 14.2285C9.80396 12.7012 8.78966 10 5.49996 10C2.21027 10 1.19601 12.7012 0.885448 14.2285C0.772958 14.7817 1.21714 15.25 1.78164 15.25ZM8.24996 3.5C8.24996 5.01878 7.01874 6.25 5.49996 6.25C3.98117 6.25 2.74996 5.01878 2.74996 3.5C2.74996 1.98122 3.98117 0.75 5.49996 0.75C7.01874 0.75 8.24996 1.98122 8.24996 3.5Z" stroke="white" stroke-width="1.5" stroke-linecap="round" stroke-linejoin="round"/>
</svg>
