<svg width="26" height="24" viewBox="0 0 26 24" fill="none" xmlns="http://www.w3.org/2000/svg">
<path d="M13.1374 5.86249C13.3124 5.86249 13.3874 5.93749 13.3874 5.93749V10.6375C13.3874 10.6625 13.2874 10.7375 13.1374 10.7375H13.1124C12.9624 10.7375 12.8874 10.6625 12.8624 10.6625V5.93749C12.8874 5.91249 12.9874 5.86249 13.1374 5.86249Z" fill="#FF0000" stroke="#FF0000" stroke-width="1.33333" stroke-miterlimit="10"/>
<path d="M13.0124 18.1375C10.1124 18.1375 7.7374 15.7625 7.7374 12.8625C7.7374 10.7875 8.8124 8.98749 10.5374 8.11249C10.5624 8.11249 10.5874 8.08749 10.6124 8.08749C10.6374 8.08749 10.6374 8.08749 10.6624 8.08749C10.7124 8.11249 10.7374 8.13749 10.7624 8.18749C10.7874 8.23749 10.7874 8.28749 10.7624 8.31249C10.7374 8.36249 10.7124 8.38749 10.6624 8.41249C9.0624 9.21249 8.0624 10.9125 8.0624 12.8375C8.0624 15.5625 10.2624 17.7625 12.9874 17.7625C15.7124 17.7625 17.9124 15.5625 17.9124 12.8375C17.9124 10.9125 16.9124 9.23749 15.3374 8.41249C15.2624 8.36249 15.2124 8.26249 15.2624 8.18749C15.3124 8.11249 15.4124 8.06249 15.4874 8.11249C17.1874 8.98749 18.2624 10.7875 18.2624 12.8375C18.2874 15.7875 15.9124 18.1375 13.0124 18.1375Z" fill="#FF0000" stroke="#FF0000" stroke-width="1.33333" stroke-miterlimit="10"/>
</svg>
