<svg width="80" height="22" viewBox="0 0 80 22" fill="none" xmlns="http://www.w3.org/2000/svg">
<path d="M15.7516 5.92678C15.7516 8.49847 14.232 9.69664 12.5078 10.2811V10.3396C14.6995 10.7195 16.5699 12.3268 16.5699 15.4537C16.5699 19.4866 13.7936 21.5615 9.46849 21.5615H0V0.666504H8.97169C13.2676 0.666504 15.7516 2.56605 15.7516 5.92678ZM3.47763 9.31673H8.85479C11.3388 9.31673 12.274 8.32313 12.274 6.48203C12.274 4.64093 11.1342 3.6181 9.05936 3.6181H3.47763V9.31673ZM3.47763 11.9176V18.6099H9.20548C12.1863 18.6099 13.0922 17.2071 13.0922 15.2492C13.0922 13.1158 11.7772 11.9176 9.58539 11.9176H3.47763Z" fill="white"/>
<path d="M25.8724 6.27746C26.3984 6.27746 26.7783 6.30669 27.2167 6.36513V9.25828H27.1582C24.2066 8.76148 21.8395 10.7487 21.8395 13.9341V21.5615H18.771V6.62815H21.8395V9.43363H21.8979C22.687 7.56331 23.9144 6.27746 25.8724 6.27746Z" fill="white"/>
<path d="M37.7041 10.5441C37.7041 9.46285 37.0612 8.64459 35.0155 8.64459C32.5607 8.64459 31.6548 9.4044 31.5087 11.3332H28.5279C28.674 8.46924 30.5151 6.21901 35.0155 6.21901C38.3178 6.21901 40.7726 7.47564 40.7726 11.4501V18.5514C40.7726 19.6035 41.0064 20.1587 42.2046 20.0418V21.503C41.5032 21.766 41.0064 21.8245 40.4219 21.8245C38.7854 21.8245 38.0256 21.24 37.7333 19.7788H37.6749C36.7397 21.0939 35.0447 21.9998 32.7361 21.9998C29.6968 21.9998 27.8265 20.2464 27.8265 17.7332C27.8265 14.4601 30.2521 13.4373 33.9927 12.7067C36.3014 12.2683 37.7041 11.9761 37.7041 10.5441ZM33.4082 19.5743C35.9507 19.5743 37.7041 18.3176 37.7041 15.8921V13.6418C37.2073 13.9925 36.0091 14.3432 34.5772 14.6355C32.0347 15.1907 30.9242 15.9213 30.9242 17.4409C30.9242 18.8144 31.7425 19.5743 33.4082 19.5743Z" fill="white"/>
<path d="M52.0358 6.21901C54.8121 6.21901 57.0039 7.82632 57.0039 11.2455V21.5615H53.9062V12.1222C53.9062 10.1058 53.0587 8.81993 50.9546 8.81993C48.5874 8.81993 47.0678 10.2519 47.0678 12.4729V21.5615H43.9993V6.62815H47.0678V8.55691H47.1263C47.9153 7.38797 49.4641 6.21901 52.0358 6.21901Z" fill="white"/>
<path d="M70.3011 0.666504H73.3696V21.5615H70.3011V19.8373H70.2427C69.4537 20.8601 67.9925 21.9998 65.6838 21.9998C61.8555 21.9998 59.0208 19.019 59.0208 14.1094C59.0208 9.19984 61.8555 6.21901 65.6838 6.21901C67.9925 6.21901 69.4537 7.30029 70.2427 8.44002H70.3011V0.666504ZM66.2098 19.4866C68.7231 19.4866 70.2719 17.4117 70.2719 14.1094C70.2719 10.7779 68.7231 8.73226 66.2098 8.73226C63.5212 8.73226 62.0893 11.1871 62.0893 14.1094C62.0893 17.0318 63.5212 19.4866 66.2098 19.4866Z" fill="white"/>
<path d="M77.9126 21.7953C76.8313 21.7953 76.013 21.0647 76.013 19.8957C76.013 18.756 76.8313 17.9962 77.9126 17.9962C78.9646 17.9962 79.7829 18.756 79.7829 19.8957C79.7829 21.0647 78.9646 21.7953 77.9126 21.7953Z" fill="white"/>
</svg>
